<svg width="80" height="20" viewBox="0 0 80 20" fill="none" xmlns="http://www.w3.org/2000/svg">
<path d="M20.0087 10.114C20.0087 9.162 20.2281 8.308 20.6667 7.552C21.1147 6.796 21.7167 6.208 22.4727 5.788C23.2381 5.35867 24.0734 5.144 24.9787 5.144C26.0147 5.144 26.9341 5.40067 27.7367 5.914C28.5487 6.418 29.1367 7.13667 29.5007 8.07H27.5827C27.3307 7.55667 26.9807 7.174 26.5327 6.922C26.0847 6.67 25.5667 6.544 24.9787 6.544C24.3347 6.544 23.7607 6.68867 23.2567 6.978C22.7527 7.26733 22.3561 7.68267 22.0667 8.224C21.7867 8.76533 21.6467 9.39533 21.6467 10.114C21.6467 10.8327 21.7867 11.4627 22.0667 12.004C22.3561 12.5453 22.7527 12.9653 23.2567 13.264C23.7607 13.5533 24.3347 13.698 24.9787 13.698C25.5667 13.698 26.0847 13.572 26.5327 13.32C26.9807 13.068 27.3307 12.6853 27.5827 12.172H29.5007C29.1367 13.1053 28.5487 13.824 27.7367 14.328C26.9341 14.832 26.0147 15.084 24.9787 15.084C24.0641 15.084 23.2287 14.874 22.4727 14.454C21.7167 14.0247 21.1147 13.432 20.6667 12.676C20.2281 11.92 20.0087 11.066 20.0087 10.114ZM35.3588 7.16C35.9468 7.16 36.4695 7.286 36.9268 7.538C37.3935 7.79 37.7575 8.16333 38.0188 8.658C38.2895 9.15267 38.4248 9.75 38.4248 10.45V15H36.8428V10.688C36.8428 9.99733 36.6702 9.47 36.3248 9.106C35.9795 8.73267 35.5082 8.546 34.9108 8.546C34.3135 8.546 33.8375 8.73267 33.4828 9.106C33.1375 9.47 32.9648 9.99733 32.9648 10.688V15H31.3688V4.64H32.9648V8.182C33.2355 7.85533 33.5762 7.60333 33.9868 7.426C34.4068 7.24867 34.8642 7.16 35.3588 7.16ZM39.9286 11.108C39.9286 10.3333 40.0873 9.64733 40.4046 9.05C40.7313 8.45267 41.17 7.99067 41.7206 7.664C42.2806 7.328 42.8966 7.16 43.5686 7.16C44.1753 7.16 44.7026 7.28133 45.1506 7.524C45.608 7.75733 45.972 8.05133 46.2426 8.406V7.286H47.8526V15H46.2426V13.852C45.972 14.216 45.6033 14.5193 45.1366 14.762C44.67 15.0047 44.138 15.126 43.5406 15.126C42.878 15.126 42.2713 14.958 41.7206 14.622C41.17 14.2767 40.7313 13.8007 40.4046 13.194C40.0873 12.578 39.9286 11.8827 39.9286 11.108ZM46.2426 11.136C46.2426 10.604 46.1306 10.142 45.9066 9.75C45.692 9.358 45.4073 9.05933 45.0526 8.854C44.698 8.64867 44.3153 8.546 43.9046 8.546C43.494 8.546 43.1113 8.64867 42.7566 8.854C42.402 9.05 42.1126 9.344 41.8886 9.736C41.674 10.1187 41.5666 10.576 41.5666 11.108C41.5666 11.64 41.674 12.1067 41.8886 12.508C42.1126 12.9093 42.402 13.2173 42.7566 13.432C43.1206 13.6373 43.5033 13.74 43.9046 13.74C44.3153 13.74 44.698 13.6373 45.0526 13.432C45.4073 13.2267 45.692 12.928 45.9066 12.536C46.1306 12.1347 46.2426 11.668 46.2426 11.136ZM51.8109 8.588V12.858C51.8109 13.1473 51.8763 13.3573 52.0069 13.488C52.1469 13.6093 52.3803 13.67 52.7069 13.67H53.6869V15H52.4269C51.7083 15 51.1576 14.832 50.7749 14.496C50.3923 14.16 50.2009 13.614 50.2009 12.858V8.588H49.2909V7.286H50.2009V5.368H51.8109V7.286H53.6869V8.588H51.8109ZM56.7539 8.434C57.0246 8.06067 57.3932 7.75733 57.8599 7.524C58.3359 7.28133 58.8632 7.16 59.4419 7.16C60.1232 7.16 60.7392 7.32333 61.2899 7.65C61.8406 7.97667 62.2746 8.44333 62.5919 9.05C62.9092 9.64733 63.0679 10.3333 63.0679 11.108C63.0679 11.8827 62.9092 12.578 62.5919 13.194C62.2746 13.8007 61.8359 14.2767 61.2759 14.622C60.7252 14.958 60.1139 15.126 59.4419 15.126C58.8446 15.126 58.3126 15.0093 57.8459 14.776C57.3886 14.5427 57.0246 14.244 56.7539 13.88V15H55.1579V4.64H56.7539V8.434ZM61.4439 11.108C61.4439 10.576 61.3319 10.1187 61.1079 9.736C60.8932 9.344 60.6039 9.05 60.2399 8.854C59.8852 8.64867 59.5026 8.546 59.0919 8.546C58.6906 8.546 58.3079 8.64867 57.9439 8.854C57.5892 9.05933 57.2999 9.358 57.0759 9.75C56.8612 10.142 56.7539 10.604 56.7539 11.136C56.7539 11.668 56.8612 12.1347 57.0759 12.536C57.2999 12.928 57.5892 13.2267 57.9439 13.432C58.3079 13.6373 58.6906 13.74 59.0919 13.74C59.5026 13.74 59.8852 13.6373 60.2399 13.432C60.6039 13.2173 60.8932 12.9093 61.1079 12.508C61.3319 12.1067 61.4439 11.64 61.4439 11.108ZM67.9922 15.126C67.2642 15.126 66.6062 14.9627 66.0182 14.636C65.4302 14.3 64.9682 13.8333 64.6322 13.236C64.2962 12.6293 64.1282 11.9293 64.1282 11.136C64.1282 10.352 64.3009 9.65667 64.6462 9.05C64.9915 8.44333 65.4629 7.97667 66.0602 7.65C66.6575 7.32333 67.3249 7.16 68.0622 7.16C68.7995 7.16 69.4669 7.32333 70.0642 7.65C70.6615 7.97667 71.1329 8.44333 71.4782 9.05C71.8235 9.65667 71.9962 10.352 71.9962 11.136C71.9962 11.92 71.8189 12.6153 71.4642 13.222C71.1095 13.8287 70.6242 14.3 70.0082 14.636C69.4015 14.9627 68.7295 15.126 67.9922 15.126ZM67.9922 13.74C68.4029 13.74 68.7855 13.642 69.1402 13.446C69.5042 13.25 69.7982 12.956 70.0222 12.564C70.2462 12.172 70.3582 11.696 70.3582 11.136C70.3582 10.576 70.2509 10.1047 70.0362 9.722C69.8215 9.33 69.5369 9.036 69.1822 8.84C68.8275 8.644 68.4449 8.546 68.0342 8.546C67.6235 8.546 67.2409 8.644 66.8862 8.84C66.5409 9.036 66.2655 9.33 66.0602 9.722C65.8549 10.1047 65.7522 10.576 65.7522 11.136C65.7522 11.9667 65.9622 12.6107 66.3822 13.068C66.8115 13.516 67.3482 13.74 67.9922 13.74ZM76.8779 11.094L79.3699 15H77.5639L75.8979 12.382L74.3299 15H72.6639L75.1559 11.206L72.6639 7.286H74.4699L76.1359 9.904L77.7039 7.286H79.3699L76.8779 11.094Z" fill="white"/>
<path d="M6.7923 19.2008C4.66496 19.2008 2.99348 18.5638 1.77785 17.2898C0.592617 15.9855 0 14.1807 0 11.8754C0 9.60039 0.48625 7.56808 1.45875 5.77844C2.43125 3.98879 3.76844 2.5783 5.47031 1.54698C7.17218 0.515661 9.10199 0 11.2597 0C12.7185 0 13.8733 0.242665 14.7242 0.727993C15.5752 1.21332 16.0007 1.88065 16.0007 2.72997C16.0007 3.48829 15.636 4.23145 14.9066 4.95945C14.6331 5.23244 14.2684 5.49027 13.8125 5.73294C13.3871 5.94527 13.0528 6.05143 12.8096 6.05143C12.5361 6.05143 12.3082 5.94527 12.1259 5.73294C11.8219 5.39927 11.4269 5.08078 10.9406 4.77745C10.4544 4.47412 9.77058 4.32245 8.88925 4.32245C7.40011 4.32245 6.18449 4.83811 5.24238 5.86944C4.30027 6.87042 3.82922 8.18991 3.82922 9.82789C3.82922 11.3142 4.25469 12.5124 5.10562 13.4224C5.95656 14.3323 7.08101 14.7873 8.47898 14.7873C9.20836 14.7873 9.99851 14.666 10.8494 14.4233C11.7308 14.1503 12.5057 13.7712 13.1743 13.2859C13.5086 12.9825 13.8581 12.8309 14.2228 12.8309C14.8306 12.8309 15.1345 13.21 15.1345 13.9683C15.1345 14.9693 14.6331 15.9248 13.6302 16.8348C12.8704 17.5325 11.8523 18.1088 10.5759 18.5638C9.32992 18.9885 8.06871 19.2008 6.7923 19.2008Z" fill="#001815"/>
<path d="M6.82672 18.7436C4.76016 18.7436 3.13643 18.1218 1.95554 16.8781C0.80417 15.6049 0.228485 13.843 0.228485 11.5926C0.228485 9.37181 0.700842 7.38789 1.64556 5.64085C2.59027 3.89382 3.88925 2.51692 5.5425 1.51015C7.19575 0.503383 9.07042 0 11.1665 0C12.5836 0 13.7054 0.236887 14.532 0.71066C15.3587 1.18443 15.772 1.83587 15.772 2.66497C15.772 3.40524 15.4177 4.13071 14.7092 4.84136C14.4435 5.10786 14.0892 5.35955 13.6464 5.59644C13.2331 5.80371 12.9083 5.90735 12.6721 5.90735C12.4064 5.90735 12.185 5.80371 12.0079 5.59644C11.7127 5.27072 11.3289 4.95981 10.8565 4.6637C10.3842 4.36759 9.71991 4.21954 8.86376 4.21954C7.41717 4.21954 6.23627 4.72292 5.32108 5.72969C4.40589 6.70684 3.9483 7.99491 3.9483 9.59389C3.9483 11.0448 4.36161 12.2144 5.18823 13.1028C6.01486 13.9911 7.10718 14.4353 8.46521 14.4353C9.17375 14.4353 9.94132 14.3168 10.7679 14.0799C11.6241 13.8134 12.3769 13.4433 13.0264 12.9695C13.3512 12.6734 13.6907 12.5254 14.0449 12.5254C14.6354 12.5254 14.9306 12.8955 14.9306 13.6358C14.9306 14.6129 14.4435 15.5457 13.4692 16.434C12.7312 17.115 11.7422 17.6776 10.5022 18.1218C9.29183 18.5364 8.06666 18.7436 6.82672 18.7436Z" fill="white"/>
</svg>
